<svg xmlns="http://www.w3.org/2000/svg" xmlns:xlink="http://www.w3.org/1999/xlink" version="1.1" x="0px" y="0px" viewBox="0 0 100 125" enable-background="new 0 0 100 100" xml:space="preserve"><g><path fill="#000000" d="M86.072,50c0,19.922-16.15,36.072-36.072,36.072S13.928,69.922,13.928,50S30.078,13.928,50,13.928   S86.072,30.078,86.072,50z M50,21.049c-15.989,0-28.951,12.962-28.951,28.951S34.011,78.951,50,78.951S78.951,65.989,78.951,50   S65.989,21.049,50,21.049z"/><path fill="#000000" d="M75.899,50c0,14.303-11.595,25.899-25.899,25.899S24.101,64.303,24.101,50S35.697,24.101,50,24.101   S75.899,35.697,75.899,50z M50,42.074c-4.377,0-7.926,3.548-7.926,7.926s3.548,7.926,7.926,7.926s7.926-3.548,7.926-7.926   S54.377,42.074,50,42.074z M59.827,57.392c-1.345,0-2.435,1.09-2.435,2.435s1.09,2.435,2.435,2.435s2.435-1.09,2.435-2.435   S61.172,57.392,59.827,57.392z M46.697,38.148l0.046-8.32c0,0-3.876,0.245-8.482,3.371c-4.964,3.369-6.525,7.523-6.525,7.523   l7.722,2.896c0,0,0.813-1.819,3.354-3.681C45.091,38.267,46.697,38.148,46.697,38.148z M38.515,45.41l-7.561-2.919   c0,0-0.846,1.378-1.08,3.185C29.578,47.952,29.552,49,29.552,49h8.111c0,0-0.023-0.711,0.184-1.745   C38.071,46.135,38.515,45.41,38.515,45.41z"/></g></svg>